<svg width="500" height="500" viewBox="0 0 500 500" fill="none" xmlns="http://www.w3.org/2000/svg">
<rect width="500" height="500" fill="white"/>
<g clip-path="url(#clip0_79_2)">
<path d="M430 250C430 308.542 382.243 356 323.333 356H321.953H321.103L320.28 355.98C319.673 355.98 319.063 355.94 318.46 355.914C318.223 355.914 317.99 355.894 317.753 355.877L316.483 355.808L315.56 355.745L315.243 355.722C314.967 355.702 314.69 355.682 314.413 355.656C314.137 355.629 313.92 355.616 313.673 355.593C313.37 355.566 313.067 355.54 312.76 355.506L312.25 355.457C311.53 355.384 310.813 355.304 310.097 355.212C309.827 355.182 309.553 355.145 309.28 355.109C308.613 355.027 307.959 354.936 307.317 354.834L306.333 354.675C306 354.625 305.667 354.572 305.36 354.516L304.39 354.347C303.963 354.274 303.537 354.195 303.117 354.112C302.783 354.056 302.483 353.993 302.167 353.93L301.5 353.791C300.853 353.658 300.213 353.519 299.573 353.373L298.63 353.155L297.68 352.926C297.047 352.774 296.417 352.612 295.79 352.442L294.853 352.191L293.917 351.929C293.293 351.75 292.67 351.568 292.053 351.379L291.253 351.134L290.867 351.011L290.107 350.766C289.46 350.554 288.813 350.339 288.173 350.104L287.253 349.773L287.16 349.739L286.26 349.408C285.303 349.077 284.36 348.696 283.42 348.315L282.483 347.934L281.55 347.543C280.928 347.285 280.31 347.016 279.697 346.738L278.9 346.394L278.643 346.278L278.017 345.986C275.35 344.745 272.742 343.394 270.193 341.932L269.397 341.471C268.967 341.223 268.537 340.968 268.113 340.71L267.447 340.295L267.193 340.143L266.563 339.749C265.652 339.184 264.754 338.603 263.87 338.007L263.06 337.45C262.664 337.183 262.271 336.911 261.88 336.635C261.858 336.622 261.836 336.606 261.817 336.589C261.412 336.306 261.012 336.021 260.617 335.734L260.547 335.684C260.118 335.373 259.691 335.058 259.267 334.74C259.216 334.707 259.167 334.67 259.12 334.631C258.75 334.356 258.383 334.078 258.02 333.793C257.933 333.733 257.853 333.67 257.773 333.604C257.417 333.329 257.06 333.051 256.707 332.766C256.573 332.663 256.44 332.554 256.307 332.435C255.947 332.15 255.587 331.855 255.23 331.557C255.15 331.497 255.073 331.435 255 331.368C254.747 331.161 254.493 330.949 254.24 330.732C254.013 330.543 253.787 330.348 253.573 330.156C253.193 329.836 252.819 329.504 252.45 329.162C252.053 328.814 251.663 328.46 251.273 328.105C250.883 327.751 250.517 327.413 250.143 327.059C248.294 325.33 246.509 323.532 244.787 321.666C244.59 321.457 244.397 321.245 244.207 321.033C243.94 320.745 243.677 320.454 243.42 320.159C243.163 319.864 242.93 319.609 242.69 319.331C242.45 319.052 242.133 318.688 241.857 318.363C241.043 317.412 240.25 316.445 239.477 315.465L238.837 314.647C238.23 313.872 237.637 313.085 237.057 312.288C236.723 311.831 236.39 311.374 236.057 310.91C236.033 310.88 236.01 310.847 235.99 310.814C235.668 310.357 235.348 309.897 235.03 309.433C234.739 309.013 234.454 308.59 234.177 308.164C234.063 307.999 233.95 307.833 233.843 307.654C233.641 307.349 233.441 307.041 233.243 306.73C233.167 306.614 233.09 306.498 233.02 306.379C232.733 305.937 232.451 305.484 232.173 305.021C231.867 304.524 231.567 304.027 231.27 303.517C230.973 303.007 230.68 302.523 230.39 302C230.223 301.705 230.057 301.413 229.893 301.115L229.537 300.453C229.333 300.088 229.137 299.721 228.94 299.353C228.893 299.267 228.847 299.177 228.803 299.088C228.637 298.757 228.47 298.455 228.307 298.137C228.107 297.746 227.91 297.356 227.713 296.965C227.517 296.574 227.327 296.18 227.137 295.789C226.754 295 226.382 294.206 226.02 293.407C225.658 292.608 225.306 291.803 224.963 290.992C224.793 290.588 224.63 290.181 224.457 289.773C224.283 289.366 224.123 288.962 223.967 288.554C223.807 288.147 223.633 287.739 223.493 287.329C223.353 286.918 223.183 286.504 223.03 286.09C222.586 284.849 222.156 283.594 221.74 282.327C221.603 281.906 221.47 281.482 221.34 281.058C221.15 280.445 220.967 279.826 220.787 279.206C220.7 278.898 220.61 278.587 220.523 278.276C220.437 277.964 220.353 277.656 220.27 277.345C220.099 276.722 219.937 276.096 219.783 275.467C219.703 275.153 219.627 274.838 219.553 274.522L219.333 273.585C219.187 272.949 219.047 272.313 218.913 271.67L218.773 271.008C218.71 270.693 218.647 270.379 218.59 270.064C218.507 269.646 218.427 269.222 218.353 268.798C218.293 268.478 218.237 268.157 218.183 267.835C218.127 267.503 218.073 267.172 218.023 266.867C217.973 266.563 217.92 266.205 217.87 265.893C217.77 265.231 217.68 264.595 217.593 263.942C217.557 263.671 217.52 263.399 217.49 263.131C217.397 262.419 217.317 261.706 217.243 260.991C217.223 260.823 217.207 260.654 217.193 260.484C217.16 260.179 217.133 259.878 217.107 259.576C217.083 259.331 217.06 259.086 217.043 258.841C217.027 258.596 216.997 258.291 216.977 258.016C216.977 257.91 216.96 257.808 216.953 257.702C216.93 257.397 216.91 257.089 216.89 256.784C216.863 256.362 216.84 255.942 216.82 255.522C216.803 255.287 216.793 255.055 216.783 254.82C216.757 254.22 216.733 253.614 216.717 253.011L216.697 252.193C216.697 251.911 216.697 251.63 216.697 251.348C216.697 250.891 216.697 250.434 216.697 249.977C216.697 249.52 216.697 249.063 216.697 248.605C216.697 248.208 216.703 247.81 216.717 247.413C216.74 246.393 216.78 245.379 216.837 244.365C216.853 243.994 216.873 243.62 216.9 243.249C216.937 242.663 216.977 242.073 217.023 241.49C217.05 241.159 217.08 240.828 217.11 240.477C217.143 240.082 217.183 239.688 217.223 239.291L217.253 238.979C217.293 238.588 217.337 238.198 217.383 237.807C217.43 237.396 217.48 236.989 217.53 236.584C217.57 236.273 217.61 235.965 217.653 235.657C217.697 235.349 217.73 235.104 217.77 234.829C217.888 234.003 218.016 233.181 218.153 232.364C218.217 231.99 218.28 231.619 218.347 231.248C218.345 231.227 218.345 231.206 218.347 231.185C218.487 230.393 218.637 229.608 218.8 228.823C218.837 228.638 218.873 228.456 218.913 228.273C219.02 227.753 219.133 227.233 219.247 226.716C219.502 225.575 219.779 224.441 220.077 223.315C220.197 222.847 220.32 222.38 220.45 221.913C220.593 221.39 220.743 220.863 220.897 220.343C221.033 219.873 221.173 219.402 221.32 218.935C221.343 218.846 221.37 218.76 221.4 218.674C221.55 218.19 221.703 217.71 221.86 217.229C222.027 216.716 222.193 216.209 222.373 215.699C222.553 215.189 222.723 214.705 222.907 214.185L222.927 214.129C223.04 213.798 223.157 213.493 223.28 213.178C223.403 212.864 223.48 212.635 223.583 212.363C223.917 211.512 224.25 210.664 224.583 209.826C224.697 209.548 224.81 209.27 224.917 208.995C224.967 208.865 225.023 208.74 225.08 208.614C225.217 208.282 225.36 207.951 225.507 207.62C225.533 207.554 225.56 207.491 225.59 207.428C225.747 207.07 225.923 206.716 226.067 206.361C226.423 205.579 226.787 204.801 227.163 204.042C227.29 203.781 227.417 203.519 227.547 203.261C227.677 203.002 227.763 202.82 227.88 202.598C227.997 202.376 228.063 202.227 228.16 202.045C228.257 201.863 228.36 201.651 228.467 201.452C228.613 201.167 228.763 200.882 228.913 200.601C229.11 200.226 229.31 199.855 229.51 199.488C230.05 198.501 230.606 197.524 231.177 196.559C231.327 196.304 231.477 196.053 231.63 195.801C231.81 195.496 231.993 195.195 232.18 194.893C232.597 194.208 233.027 193.525 233.463 192.853C233.69 192.498 233.923 192.144 234.157 191.793C234.34 191.511 234.527 191.233 234.713 190.958C235.751 189.412 236.829 187.905 237.947 186.436C238.12 186.205 238.297 185.976 238.473 185.747C238.583 185.598 238.693 185.453 238.807 185.31L239.447 184.492C240.22 183.512 241.013 182.545 241.827 181.594C242.103 181.262 242.38 180.931 242.66 180.626C242.94 180.322 243.143 180.073 243.39 179.798C243.637 179.523 243.91 179.212 244.177 178.924C244.367 178.712 244.56 178.5 244.757 178.291C246.432 176.471 248.173 174.715 249.98 173.021C258.16 180.72 265.068 189.652 270.45 199.488C257.305 213.056 249.974 231.166 250 250C250 250.858 250 251.713 250.047 252.561C250.435 264.123 253.604 275.426 259.287 285.523C259.849 286.524 260.434 287.509 261.043 288.478L362.043 188.109C351.171 181.374 338.705 177.604 325.9 177.178C325.047 177.145 324.187 177.132 323.323 177.132C314.857 177.122 306.454 178.572 298.487 181.418C292.812 171.486 285.932 162.285 278 154.02C280.078 153.046 282.189 152.141 284.333 151.304L285.22 150.973C285.96 150.688 286.707 150.416 287.457 150.151C287.767 150.039 288.08 149.933 288.393 149.82C288.707 149.707 289.017 149.605 289.333 149.489C289.65 149.373 290 149.264 290.35 149.158C290.763 149.022 291.18 148.893 291.6 148.763L292.653 148.432C293.46 148.194 294.271 147.963 295.087 147.74C295.317 147.677 295.543 147.614 295.773 147.558C296.067 147.478 296.363 147.399 296.66 147.326C296.957 147.253 297.327 147.154 297.66 147.071C298.08 146.968 298.5 146.865 298.923 146.769L299.55 146.65L300.303 146.484C301.243 146.279 302.19 146.084 303.143 145.905C303.573 145.822 304.003 145.742 304.437 145.666H304.483C304.91 145.587 305.34 145.514 305.77 145.444C306.497 145.325 307.228 145.215 307.963 145.113L308.72 144.994C309.867 144.838 311.017 144.699 312.177 144.58L312.71 144.527C313.023 144.494 313.333 144.467 313.643 144.441C314.103 144.398 314.563 144.358 315.023 144.325L315.537 144.288C315.837 144.265 316.14 144.242 316.443 144.225H316.547L317.643 144.162C318.147 144.136 318.643 144.113 319.16 144.093L320.2 144.06C320.463 144.06 320.73 144.043 320.993 144.04H321.74C322.27 144.04 322.8 144.04 323.333 144.04H324.713H325.563L326.387 144.06C326.993 144.06 327.6 144.099 328.207 144.126C328.443 144.126 328.677 144.146 328.913 144.162C329.336 144.182 329.759 144.205 330.183 144.232L331.107 144.295L331.423 144.318C331.7 144.338 331.977 144.358 332.253 144.384C332.53 144.411 332.747 144.424 332.993 144.447C333.297 144.474 333.6 144.5 333.907 144.533C334.076 144.547 334.246 144.563 334.417 144.583C335.137 144.656 335.853 144.735 336.57 144.828C336.84 144.858 337.113 144.894 337.387 144.931C338.053 145.017 338.697 145.106 339.35 145.206L340.33 145.358C340.663 145.408 340.997 145.461 341.303 145.517L342.273 145.686C342.7 145.759 343.127 145.838 343.547 145.921C343.88 145.978 344.18 146.041 344.497 146.103L345.163 146.243C345.81 146.375 346.45 146.514 347.09 146.66L348.033 146.879C348.351 146.951 348.668 147.028 348.983 147.107C349.617 147.26 350.247 147.421 350.873 147.591L351.81 147.843L352.747 148.104C353.37 148.283 353.993 148.465 354.61 148.654L355.677 148.985L356.74 149.317L357.797 149.668C358.5 149.906 359.2 150.155 359.897 150.406L360.937 150.791C361.223 150.897 361.51 151.007 361.797 151.122C362.243 151.288 362.683 151.453 363.13 151.639L364.04 152.01L365.06 152.434C365.393 152.576 365.727 152.722 366.06 152.871C366.393 153.02 366.727 153.162 367.06 153.315L368.06 153.772C368.393 153.924 368.727 154.08 369.06 154.239C369.493 154.441 369.923 154.646 370.35 154.858L371.04 155.19C371.373 155.352 371.707 155.521 372.04 155.687C372.707 156.018 373.34 156.349 373.987 156.707L374.833 157.167C375.417 157.498 375.993 157.807 376.563 158.138L377.23 158.519C378.057 158.999 378.877 159.489 379.687 159.996L380.287 160.37C380.473 160.486 380.66 160.602 380.843 160.722C381.177 160.943 381.537 161.165 381.88 161.384C382.123 161.54 382.363 161.695 382.6 161.858C382.837 162.02 383.053 162.159 383.267 162.315C385.127 163.569 386.942 164.883 388.713 166.257C388.93 166.419 389.147 166.588 389.36 166.757C390.313 167.503 391.252 168.266 392.177 169.046L393.11 169.838C393.443 170.122 393.777 170.407 394.11 170.699C394.317 170.878 394.52 171.06 394.723 171.245C395.167 171.636 395.603 172.037 396.037 172.441C396.3 172.683 396.563 172.928 396.823 173.177C398.137 174.413 399.416 175.684 400.66 176.989C400.91 177.248 401.157 177.509 401.4 177.771C401.807 178.202 402.21 178.636 402.603 179.076C402.79 179.278 402.973 179.48 403.153 179.686C403.447 180.017 403.733 180.348 404.02 180.679C404.307 181.011 404.54 181.279 404.797 181.58C405.579 182.497 406.347 183.43 407.1 184.379C407.27 184.591 407.433 184.807 407.603 185.022C408.297 185.905 408.972 186.796 409.63 187.695L312.373 284.314L284.613 311.901C295.486 318.636 307.952 322.406 320.757 322.832C321.61 322.865 322.47 322.878 323.333 322.878C363.833 322.878 396.667 290.25 396.667 250.003C396.667 249.145 396.667 248.291 396.62 247.443L411.62 232.537L425.333 218.906C425.523 219.518 425.707 220.138 425.887 220.757C425.973 221.065 426.063 221.377 426.15 221.688C426.237 221.999 426.32 222.308 426.403 222.619C426.572 223.242 426.734 223.868 426.89 224.497C426.97 224.813 427.047 225.128 427.12 225.441L427.34 226.379C427.487 227.015 427.627 227.651 427.76 228.293L427.9 228.956C427.963 229.27 428.027 229.585 428.083 229.9C428.167 230.317 428.247 230.741 428.32 231.165C428.38 231.485 428.437 231.807 428.49 232.129C428.547 232.46 428.6 232.792 428.65 233.096C428.7 233.401 428.753 233.759 428.803 234.07C428.903 234.719 428.996 235.37 429.08 236.021C429.117 236.293 429.153 236.565 429.183 236.833C429.277 237.545 429.357 238.257 429.43 238.973C429.45 239.141 429.467 239.309 429.48 239.48C429.513 239.784 429.54 240.086 429.567 240.387C429.59 240.632 429.613 240.877 429.63 241.123C429.647 241.368 429.677 241.672 429.697 241.947C429.697 242.053 429.713 242.156 429.72 242.262C429.743 242.567 429.763 242.875 429.783 243.18C429.81 243.601 429.833 244.022 429.853 244.442C429.853 244.677 429.88 244.909 429.89 245.144C429.917 245.747 429.94 246.35 429.957 246.953L429.977 247.771C429.977 248.052 429.977 248.334 429.977 248.615C429.992 249.081 430 249.543 430 250Z" fill="#71A894"/>
<path d="M250 173.027C248.196 174.723 246.454 176.48 244.777 178.298C244.58 178.506 244.387 178.718 244.197 178.93C243.93 179.218 243.667 179.51 243.41 179.805C243.153 180.1 242.92 180.355 242.68 180.633C242.44 180.911 242.123 181.276 241.847 181.6C241.033 182.55 240.24 183.516 239.467 184.499L238.827 185.317C238.71 185.459 238.6 185.605 238.493 185.754C238.317 185.983 238.14 186.211 237.967 186.443C236.856 187.92 235.778 189.428 234.733 190.965C234.547 191.24 234.36 191.518 234.177 191.799C233.943 192.15 233.71 192.505 233.483 192.859C233.047 193.522 232.617 194.214 232.2 194.9C232.013 195.201 231.83 195.503 231.65 195.807C231.497 196.059 231.347 196.311 231.197 196.566C230.628 197.531 230.072 198.507 229.53 199.494C222.696 192.411 214.488 186.776 205.403 182.932C196.317 179.087 186.542 177.112 176.667 177.125C136.167 177.125 103.333 209.753 103.333 250C103.333 290.247 136.167 322.875 176.667 322.875C185.133 322.885 193.536 321.435 201.503 318.589C207.18 328.519 214.064 337.719 222 345.98C207.817 352.601 192.336 356.023 176.667 356C117.757 356 70 308.542 70 250C70 191.458 117.757 144 176.667 144C203.95 143.984 230.2 154.374 250 173.027Z" fill="#303031"/>
</g>
<defs>
<clipPath id="clip0_79_2">
<rect width="360" height="212" fill="white" transform="translate(70 144)"/>
</clipPath>
</defs>
</svg>
